<mxfile host="app.diagrams.net" modified="2023-11-01T19:50:47.359Z" agent="Mozilla/5.0 (Windows NT 10.0; Win64; x64) AppleWebKit/537.36 (KHTML, like Gecko) Chrome/118.0.0.0 Safari/537.36" etag="EAySpthRDSaKaevhgChV" version="22.0.8" type="github">
  <diagram name="第 1 页" id="4EmPoXD_2-LQlN9BmV32">
    <mxGraphModel dx="1050" dy="534" grid="1" gridSize="10" guides="1" tooltips="1" connect="1" arrows="1" fold="1" page="1" pageScale="1" pageWidth="827" pageHeight="1169" math="0" shadow="0">
      <root>
        <mxCell id="0" />
        <mxCell id="1" parent="0" />
        <mxCell id="LP6vQsc6b6JN-bICqdqd-37" value="&lt;b&gt;&lt;font style=&quot;font-size: 14px;&quot;&gt;Dictionary&lt;/font&gt;&lt;/b&gt;" style="shape=module;align=left;spacingLeft=20;align=center;verticalAlign=top;whiteSpace=wrap;html=1;" vertex="1" parent="1">
          <mxGeometry x="80" y="100" width="160" height="50" as="geometry" />
        </mxCell>
        <mxCell id="LP6vQsc6b6JN-bICqdqd-38" value="" style="rounded=0;orthogonalLoop=1;jettySize=auto;html=1;endArrow=oval;endFill=0;sketch=0;sourcePerimeterSpacing=0;targetPerimeterSpacing=0;endSize=10;" edge="1" parent="1">
          <mxGeometry relative="1" as="geometry">
            <mxPoint x="240" y="110" as="sourcePoint" />
            <mxPoint x="300" y="110" as="targetPoint" />
          </mxGeometry>
        </mxCell>
        <mxCell id="LP6vQsc6b6JN-bICqdqd-39" value="" style="rounded=0;orthogonalLoop=1;jettySize=auto;html=1;endArrow=oval;endFill=0;sketch=0;sourcePerimeterSpacing=0;targetPerimeterSpacing=0;endSize=10;" edge="1" parent="1">
          <mxGeometry relative="1" as="geometry">
            <mxPoint x="240" y="140" as="sourcePoint" />
            <mxPoint x="300" y="140" as="targetPoint" />
          </mxGeometry>
        </mxCell>
        <mxCell id="LP6vQsc6b6JN-bICqdqd-40" value="Spell-check" style="text;align=center;fontStyle=1;verticalAlign=middle;spacingLeft=3;spacingRight=3;strokeColor=none;rotatable=0;points=[[0,0.5],[1,0.5]];portConstraint=eastwest;html=1;" vertex="1" parent="1">
          <mxGeometry x="310" y="98" width="80" height="26" as="geometry" />
        </mxCell>
        <mxCell id="LP6vQsc6b6JN-bICqdqd-41" value="Synonyms" style="text;align=center;fontStyle=1;verticalAlign=middle;spacingLeft=3;spacingRight=3;strokeColor=none;rotatable=0;points=[[0,0.5],[1,0.5]];portConstraint=eastwest;html=1;" vertex="1" parent="1">
          <mxGeometry x="310" y="130" width="80" height="26" as="geometry" />
        </mxCell>
        <mxCell id="LP6vQsc6b6JN-bICqdqd-42" value="構件" style="text;align=center;fontStyle=1;verticalAlign=middle;spacingLeft=3;spacingRight=3;strokeColor=none;rotatable=0;points=[[0,0.5],[1,0.5]];portConstraint=eastwest;html=1;" vertex="1" parent="1">
          <mxGeometry x="120" y="156" width="80" height="26" as="geometry" />
        </mxCell>
        <mxCell id="LP6vQsc6b6JN-bICqdqd-43" value="&lt;div&gt;接口&lt;/div&gt;" style="text;align=center;fontStyle=1;verticalAlign=middle;spacingLeft=3;spacingRight=3;strokeColor=none;rotatable=0;points=[[0,0.5],[1,0.5]];portConstraint=eastwest;html=1;" vertex="1" parent="1">
          <mxGeometry x="310" y="156" width="80" height="26" as="geometry" />
        </mxCell>
        <mxCell id="LP6vQsc6b6JN-bICqdqd-44" value="實現關係" style="text;align=center;fontStyle=1;verticalAlign=middle;spacingLeft=3;spacingRight=3;strokeColor=none;rotatable=0;points=[[0,0.5],[1,0.5]];portConstraint=eastwest;html=1;" vertex="1" parent="1">
          <mxGeometry x="230" y="190" width="80" height="26" as="geometry" />
        </mxCell>
        <mxCell id="LP6vQsc6b6JN-bICqdqd-45" value="" style="endArrow=open;endFill=1;endSize=12;html=1;rounded=0;" edge="1" parent="1">
          <mxGeometry width="160" relative="1" as="geometry">
            <mxPoint x="270" y="190" as="sourcePoint" />
            <mxPoint x="270" y="150" as="targetPoint" />
          </mxGeometry>
        </mxCell>
        <mxCell id="LP6vQsc6b6JN-bICqdqd-46" value="&lt;h1&gt;&lt;font style=&quot;font-size: 16px;&quot;&gt;4-1&lt;/font&gt;&lt;/h1&gt;" style="text;html=1;strokeColor=none;fillColor=none;align=center;verticalAlign=middle;whiteSpace=wrap;rounded=0;" vertex="1" parent="1">
          <mxGeometry x="30" y="30" width="60" height="30" as="geometry" />
        </mxCell>
        <mxCell id="LP6vQsc6b6JN-bICqdqd-47" value="&lt;h1&gt;&lt;font style=&quot;font-size: 16px;&quot;&gt;4-2&lt;/font&gt;&lt;/h1&gt;" style="text;html=1;strokeColor=none;fillColor=none;align=center;verticalAlign=middle;whiteSpace=wrap;rounded=0;" vertex="1" parent="1">
          <mxGeometry x="30" y="230" width="60" height="30" as="geometry" />
        </mxCell>
        <mxCell id="LP6vQsc6b6JN-bICqdqd-48" value="&lt;b&gt;&lt;font style=&quot;font-size: 13px;&quot;&gt;GUI&lt;/font&gt;&lt;/b&gt;" style="shape=module;align=left;spacingLeft=20;align=center;verticalAlign=top;whiteSpace=wrap;html=1;" vertex="1" parent="1">
          <mxGeometry x="80" y="460" width="120" height="50" as="geometry" />
        </mxCell>
        <mxCell id="LP6vQsc6b6JN-bICqdqd-49" value="&lt;b&gt;&lt;font style=&quot;font-size: 13px;&quot;&gt;Planner&lt;/font&gt;&lt;/b&gt;" style="shape=module;align=left;spacingLeft=20;align=center;verticalAlign=top;whiteSpace=wrap;html=1;" vertex="1" parent="1">
          <mxGeometry x="80" y="360" width="120" height="50" as="geometry" />
        </mxCell>
        <mxCell id="LP6vQsc6b6JN-bICqdqd-50" value="&lt;b&gt;&lt;font style=&quot;font-size: 13px;&quot;&gt;Scheduler&lt;/font&gt;&lt;/b&gt;" style="shape=module;align=left;spacingLeft=20;align=center;verticalAlign=top;whiteSpace=wrap;html=1;" vertex="1" parent="1">
          <mxGeometry x="80" y="260" width="120" height="50" as="geometry" />
        </mxCell>
        <mxCell id="LP6vQsc6b6JN-bICqdqd-51" value="" style="rounded=0;orthogonalLoop=1;jettySize=auto;html=1;endArrow=oval;endFill=0;sketch=0;sourcePerimeterSpacing=0;targetPerimeterSpacing=0;endSize=10;exitX=1;exitY=0.5;exitDx=0;exitDy=0;" edge="1" parent="1" source="LP6vQsc6b6JN-bICqdqd-50">
          <mxGeometry relative="1" as="geometry">
            <mxPoint x="250" y="120" as="sourcePoint" />
            <mxPoint x="250" y="285" as="targetPoint" />
          </mxGeometry>
        </mxCell>
        <mxCell id="LP6vQsc6b6JN-bICqdqd-52" value="" style="rounded=0;orthogonalLoop=1;jettySize=auto;html=1;endArrow=oval;endFill=0;sketch=0;sourcePerimeterSpacing=0;targetPerimeterSpacing=0;endSize=10;exitX=1;exitY=0.5;exitDx=0;exitDy=0;" edge="1" parent="1" source="LP6vQsc6b6JN-bICqdqd-49">
          <mxGeometry relative="1" as="geometry">
            <mxPoint x="220" y="305" as="sourcePoint" />
            <mxPoint x="250" y="385" as="targetPoint" />
          </mxGeometry>
        </mxCell>
        <mxCell id="LP6vQsc6b6JN-bICqdqd-53" value="" style="endArrow=open;endFill=1;endSize=12;html=1;rounded=0;exitX=0.83;exitY=-0.028;exitDx=0;exitDy=0;exitPerimeter=0;dashed=1;dashPattern=8 8;" edge="1" parent="1" source="LP6vQsc6b6JN-bICqdqd-49">
          <mxGeometry width="160" relative="1" as="geometry">
            <mxPoint x="280" y="200" as="sourcePoint" />
            <mxPoint x="250" y="290" as="targetPoint" />
          </mxGeometry>
        </mxCell>
        <mxCell id="LP6vQsc6b6JN-bICqdqd-54" value="" style="endArrow=open;endFill=1;endSize=12;html=1;rounded=0;exitX=0.83;exitY=-0.028;exitDx=0;exitDy=0;exitPerimeter=0;dashed=1;dashPattern=8 8;" edge="1" parent="1">
          <mxGeometry width="160" relative="1" as="geometry">
            <mxPoint x="180" y="460" as="sourcePoint" />
            <mxPoint x="250" y="391" as="targetPoint" />
          </mxGeometry>
        </mxCell>
        <mxCell id="LP6vQsc6b6JN-bICqdqd-55" value="reservations" style="text;align=center;fontStyle=1;verticalAlign=middle;spacingLeft=3;spacingRight=3;strokeColor=none;rotatable=0;points=[[0,0.5],[1,0.5]];portConstraint=eastwest;html=1;" vertex="1" parent="1">
          <mxGeometry x="260" y="272" width="80" height="26" as="geometry" />
        </mxCell>
        <mxCell id="LP6vQsc6b6JN-bICqdqd-56" value="update" style="text;align=center;fontStyle=1;verticalAlign=middle;spacingLeft=3;spacingRight=3;strokeColor=none;rotatable=0;points=[[0,0.5],[1,0.5]];portConstraint=eastwest;html=1;" vertex="1" parent="1">
          <mxGeometry x="250" y="372" width="80" height="26" as="geometry" />
        </mxCell>
      </root>
    </mxGraphModel>
  </diagram>
</mxfile>
